HIERARCHY
ROOT Hips
{
	OFFSET 0.000000 0.000000 0.000000
	CHANNELS 6 Xposition Yposition Zposition Zrotation Yrotation Xrotation 
	JOINT LowerBack
	{
		OFFSET 0.000000 0.000000 0.000000
		CHANNELS 3 Zrotation Yrotation Xrotation
		JOINT Spine
		{
			OFFSET 0.028270 2.035590 -0.193380
			CHANNELS 3 Zrotation Yrotation Xrotation
			JOINT Spine1
			{
				OFFSET 0.056720 2.048850 -0.042750
				CHANNELS 3 Zrotation Yrotation Xrotation
				JOINT Neck
				{
					OFFSET 0.000000 0.000000 0.000000
					CHANNELS 3 Zrotation Yrotation Xrotation
					JOINT Neck1
					{
						OFFSET -0.054170 1.746240 0.172020
						CHANNELS 3 Zrotation Yrotation Xrotation
						JOINT Head
						{
							OFFSET 0.104070 1.761360 -0.123970
							CHANNELS 3 Zrotation Yrotation Xrotation
							End Site
							{
								OFFSET 0.000000 0.000000 0.000000
							}
						}
					}
				}
				JOINT LeftShoulder
				{
					OFFSET 0.000000 0.000000 0.000000
					CHANNELS 3 Zrotation Yrotation Xrotation
					JOINT LeftArm
					{
						OFFSET 3.362410 1.200890 -0.311210
						CHANNELS 3 Zrotation Yrotation Xrotation
						JOINT LeftForeArm
						{
							OFFSET 4.983000 -0.000000 -0.000000
							CHANNELS 3 Zrotation Yrotation Xrotation
							JOINT LeftHand
							{
								OFFSET 3.483560 -0.000000 -0.000000
								CHANNELS 3 Zrotation Yrotation Xrotation
								JOINT LeftFingerBase
								{
									OFFSET 0.000000 0.000000 0.000000
									CHANNELS 3 Zrotation Yrotation Xrotation
									JOINT LeftHandIndex1
									{
										OFFSET 0.715260 -0.000000 -0.000000
										CHANNELS 3 Zrotation Yrotation Xrotation
										End Site
										{
											OFFSET 0.000000 0.000000 0.000000
										}
									}
								}
								JOINT LThumb
								{
									OFFSET 0.000000 0.000000 0.000000
									CHANNELS 3 Zrotation Yrotation Xrotation
									End Site
									{
										OFFSET 0.000000 0.000000 0.000000
									}
								}
							}
						}
					}
				}
				JOINT RightShoulder
				{
					OFFSET 0.000000 0.000000 0.000000
					CHANNELS 3 Zrotation Yrotation Xrotation
					JOINT RightArm
					{
						OFFSET -3.136600 1.374050 -0.404650
						CHANNELS 3 Zrotation Yrotation Xrotation
						JOINT RightForeArm
						{
							OFFSET -5.241900 -0.000000 -0.000000
							CHANNELS 3 Zrotation Yrotation Xrotation
							JOINT RightHand
							{
								OFFSET -3.444170 -0.000000 -0.000000
								CHANNELS 3 Zrotation Yrotation Xrotation
								JOINT RightFingerBase
								{
									OFFSET 0.000000 0.000000 0.000000
									CHANNELS 3 Zrotation Yrotation Xrotation
									JOINT RightHandIndex1
									{
										OFFSET -0.622530 -0.000000 -0.000000
										CHANNELS 3 Zrotation Yrotation Xrotation
										End Site
										{
											OFFSET 0.000000 0.000000 0.000000
										}
									}
								}
								JOINT RThumb
								{
									OFFSET 0.000000 0.000000 0.000000
									CHANNELS 3 Zrotation Yrotation Xrotation
									End Site
									{
										OFFSET 0.000000 0.000000 0.000000
									}
								}
							}
						}
					}
				}
			}
		}
	}
}
}
MOTION
Frames: 6
Frame Time: 0.008333
2.340410 16.979577 -0.986773 -36.333052 82.579783 -31.574749 3.700278 -6.659582 -5.180041 0.730473 -7.131119 -3.839372 -5.732292 -7.201058 -0.232941 10.351389 -19.283995 -7.923568 -3.481787 -0.279228 0.058304 0.000000 0.000000 0.000000 1.180377 2.263991 -1.419510 -67.773780 2.847986 13.774345 -0.868989 -84.519341 -0.068317 12.095393 -3.280551 -0.392319 -0.165013 0.399703 -0.000000 0.000000 0.000000 0.000000 0.000000 0.000000 0.000000 16.064167 -17.375399 -0.725919 58.055202 -12.002847 -5.235195 1.031669 67.042860 -0.004793 -7.519256 5.417456 -0.373718 0.156245 -0.166470 0.000000 0.000000 0.000000 0.000000 0.000000 0.000000 0.000000 
2.550180 16.962787 -1.028576 -42.245602 82.336315 -37.750643 4.385832 -6.515643 -4.884229 0.840563 -7.036685 -3.802326 -5.835028 -7.103792 -0.280499 10.534188 -19.021748 -7.946774 -3.534530 -0.282921 0.049054 0.000000 0.000000 0.000000 0.936508 2.531830 -1.355055 -68.558342 3.186805 13.648473 -0.882748 -83.563126 -0.067363 12.209223 -3.279274 -0.395067 -0.166321 0.391396 -0.000000 0.000000 0.000000 0.000000 0.000000 0.000000 0.000000 16.453193 -17.048524 -0.750661 57.940939 -11.292651 -4.831537 1.023707 67.076011 -0.005586 -7.677830 5.391015 -0.379819 0.155933 -0.168227 0.000000 0.000000 0.000000 0.000000 0.000000 0.000000 0.000000 
2.755404 16.946584 -1.070573 -47.048176 82.024988 -42.796765 4.998293 -6.344330 -4.587226 0.928426 -6.906110 -3.761287 -5.947061 -6.969118 -0.315288 10.739857 -18.759093 -7.987822 -3.588037 -0.286417 0.034356 0.000000 0.000000 0.000000 0.717494 2.857540 -1.292431 -69.336943 3.555423 13.481083 -0.893700 -82.562094 -0.066237 12.332422 -3.274641 -0.397627 -0.167465 0.381944 -0.000000 0.000000 0.000000 0.000000 0.000000 0.000000 0.000000 16.883327 -16.699326 -0.768929 57.883564 -10.467842 -4.333650 1.022407 67.023276 -0.006276 -7.776758 5.348695 -0.381718 0.155174 -0.169847 0.000000 0.000000 0.000000 0.000000 0.000000 0.000000 0.000000 
2.956041 16.931378 -1.111880 -50.735446 81.673018 -46.689791 5.531454 -6.143547 -4.305244 0.992686 -6.738573 -3.718381 -6.069204 -6.796115 -0.334449 10.968901 -18.494532 -8.048263 -3.643145 -0.289801 0.013825 0.000000 0.000000 0.000000 0.526847 3.258134 -1.231676 -70.092313 3.949523 13.281291 -0.902078 -81.526353 -0.064929 12.467744 -3.266097 -0.399997 -0.168496 0.371302 -0.000000 0.000000 0.000000 0.000000 0.000000 0.000000 0.000000 17.361433 -16.321510 -0.782748 57.874815 -9.542479 -3.735394 1.026643 66.906249 -0.006860 -7.818454 5.291143 -0.379814 0.154053 -0.171385 0.000000 0.000000 0.000000 0.000000 0.000000 0.000000 0.000000 
3.152404 16.917585 -1.152616 -53.613495 81.302346 -49.716415 6.010295 -5.916200 -4.059365 1.040641 -6.541036 -3.678301 -6.198022 -6.592114 -0.338717 11.203843 -18.227558 -8.123804 -3.697711 -0.293000 -0.011163 0.000000 0.000000 0.000000 0.344380 3.722054 -1.171740 -70.805384 4.386747 13.043746 -0.908755 -80.479270 -0.063434 12.615033 -3.258206 -0.402672 -0.169368 0.359606 -0.000000 0.000000 0.000000 0.000000 0.000000 0.000000 0.000000 17.855903 -15.916271 -0.791056 57.930430 -8.525645 -3.051080 1.036304 66.725490 -0.007301 -7.792706 5.231915 -0.374506 0.152482 -0.173090 0.000000 0.000000 0.000000 0.000000 0.000000 0.000000 0.000000 
3.344831 16.905807 -1.192216 -55.866847 80.955756 -52.047477 6.417100 -5.668297 -3.866500 1.069892 -6.320052 -3.643745 -6.333096 -6.363963 -0.326933 11.444307 -17.954264 -8.212635 -3.752641 -0.296152 -0.039970 0.000000 0.000000 0.000000 0.168967 4.255544 -1.111987 -71.457741 4.857620 12.787676 -0.914508 -79.424654 -0.061745 12.777079 -3.252132 -0.405750 -0.170187 0.346895 -0.000000 0.000000 0.000000 0.000000 0.000000 0.000000 0.000000 18.371151 -15.479966 -0.797151 58.042290 -7.448842 -2.287835 1.049338 66.510646 -0.007625 -7.712298 5.173249 -0.366695 0.150579 -0.175022 0.000000 0.000000 0.000000 0.000000 0.000000 0.000000 0.000000 
